<?xml version="1.0" standalone="no"?>
<!DOCTYPE svg PUBLIC "-//W3C//DTD SVG 20010904//EN"
 "http://www.w3.org/TR/2001/REC-SVG-20010904/DTD/svg10.dtd">
<svg version="1.0" xmlns="http://www.w3.org/2000/svg"
 width="16.000000pt" height="16.000000pt" viewBox="0 0 16.000000 16.000000"
 preserveAspectRatio="xMidYMid meet">
<metadata>
Created by potrace 1.11, written by Peter Selinger 2001-2013
</metadata>
<g transform="translate(0.000000,16.000000) scale(0.012030,-0.012030)"
fill="#000000" stroke="none">
<path d="M515 1284 c-78 -26 -134 -61 -188 -117 -36 -36 -87 -127 -87 -154 0
-16 5 -16 -53 2 -60 18 -87 7 -87 -34 0 -35 28 -130 46 -156 18 -25 18 -35 0
-35 -7 0 -22 -17 -32 -37 -39 -79 -16 -253 41 -322 17 -19 30 -59 45 -132 11
-57 29 -115 39 -129 40 -56 334 -171 363 -142 16 16 15 209 -1 239 -6 13 -24
25 -39 29 -54 11 -113 36 -160 67 -36 24 -50 42 -59 72 -19 68 -59 245 -55
245 17 0 39 -46 41 -86 5 -95 55 -154 130 -154 21 0 46 -10 70 -29 51 -40 76
-51 125 -57 51 -7 130 23 167 62 15 16 34 24 54 24 82 0 131 52 138 144 2 26
11 55 21 64 21 21 21 19 -13 -126 -19 -83 -35 -128 -47 -138 -46 -36 -123 -75
-171 -85 -30 -7 -55 -19 -59 -28 -9 -21 -15 -202 -7 -229 7 -29 31 -28 124 2
148 48 240 99 258 144 5 15 17 65 26 111 8 46 22 95 30 110 50 91 66 135 72
198 6 78 -7 139 -38 171 -14 16 -18 27 -11 35 18 23 42 111 42 153 0 58 -20
69 -87 49 -26 -8 -49 -15 -49 -15 -1 0 -4 14 -8 31 -15 77 -125 194 -221 235
-116 49 -248 56 -360 18z m291 -34 c109 -38 189 -100 229 -180 39 -78 40 -87
7 -104 -16 -8 -51 -39 -79 -68 -27 -29 -83 -88 -124 -131 -87 -93 -146 -132
-187 -122 -26 5 -113 69 -137 99 -16 21 -138 158 -162 182 -12 12 -36 31 -53
40 -34 21 -33 30 8 107 44 82 138 153 242 181 72 20 191 18 256 -4z m-550
-305 c39 -19 80 -57 167 -155 113 -125 176 -176 232 -186 61 -11 147 54 305
234 69 79 97 98 183 130 l57 22 0 -31 c0 -74 -21 -111 -115 -204 -51 -49 -118
-121 -151 -160 -105 -124 -128 -147 -179 -176 -109 -63 -178 -26 -352 191 -33
41 -84 98 -114 125 -118 112 -134 135 -145 215 l-6 39 34 -9 c18 -6 56 -21 84
-35z m-82 -227 c3 -18 8 -44 11 -58 7 -33 7 -191 1 -198 -11 -11 -47 89 -52
145 -6 58 9 143 25 143 5 0 12 -15 15 -32z m1026 -4 c16 -47 7 -158 -16 -206
-9 -21 -21 -35 -25 -32 -11 7 -9 187 3 234 13 50 23 51 38 4z m-967 -110 c3
-28 2 -56 -2 -62 -4 -7 -8 18 -9 55 -2 77 5 81 11 7z m226 -126 c11 -15 10
-17 -11 -13 -58 11 -85 44 -94 113 l-4 34 48 -59 c26 -32 53 -66 61 -75z m521
57 c-12 -37 -41 -63 -79 -70 -28 -5 -27 -2 34 71 51 61 65 61 45 -1z m127 33
c-3 -7 -5 -2 -5 12 0 14 2 19 5 13 2 -7 2 -19 0 -25z m-812 -102 c9 -42 25
-83 37 -96 34 -36 108 -79 168 -97 30 -9 59 -20 63 -24 11 -9 20 -176 10 -182
-13 -8 -173 46 -229 77 -75 41 -86 52 -91 91 -3 20 -13 69 -22 109 l-18 73 23
27 c13 14 26 42 30 61 3 19 8 35 9 35 2 0 11 -33 20 -74z m815 -24 c19 -20 19
-22 -1 -129 -12 -59 -28 -115 -36 -124 -23 -27 -122 -75 -211 -103 -46 -14
-85 -26 -88 -26 -8 0 -2 163 7 180 4 9 30 22 58 29 58 15 163 79 184 113 8 13
20 55 27 93 l13 70 14 -41 c7 -22 22 -50 33 -62z"/>
</g>
</svg>
